<?xml version="1.0" encoding="UTF-8"?>
<svg enable-background="new 0 0 2316 2148.4" version="1.1" viewBox="0 0 2316 2148.4" xml:space="preserve" xmlns="http://www.w3.org/2000/svg" xmlns:xlink="http://www.w3.org/1999/xlink">
<style type="text/css">
	.st0{fill-rule:evenodd;clip-rule:evenodd;fill:url(#i);}
	.st1{fill-rule:evenodd;clip-rule:evenodd;fill:url(#h);}
	.st2{fill-rule:evenodd;clip-rule:evenodd;fill:#4F2606;}
	.st3{fill-rule:evenodd;clip-rule:evenodd;fill:#2F1602;}
	.st4{fill-rule:evenodd;clip-rule:evenodd;fill:url(#g);}
	.st5{clip-path:url(#e);}
	.st6{clip-path:url(#c);}
	.st7{clip-path:url(#a);}
	.st8{clip-path:url(#j);}
</style>

	
		<linearGradient id="i" x1="1957.7" x2="974.15" y1="2779.3" y2="1983.8" gradientTransform="matrix(1 0 0 -1 0 3508.3)" gradientUnits="userSpaceOnUse">
		<stop stop-color="#2D1709" offset="0"/>
		<stop stop-color="#B05C0E" offset="1"/>
	</linearGradient>
	<path class="st0" d="m1954.4 1166.7c-3.7-25.8-9.8-55.4-28.2-95.7-18.4-40.2-49.1-91-84.9-135.1-35.8-44-76.7-81.3-122-110.5s-94.9-50.4-142-63.2-91.6-17.2-135.8-16.1-88 7.7-132.2 19.3c-44.2 11.7-88.7 28.5-129.3 50.8-40.5 22.3-77 50-108.4 80.3s-57.7 63.2-80.7 97.1-42.7 69-55.5 105.5-18.6 74.5-23.4 111.3c-4.8 36.9-8.4 72.7-5.8 107 2.5 34.3 11.3 67.2 23.4 102.2s27.4 72.3 47.1 107.7 43.8 69 70.1 97.9c26.3 28.8 54.8 52.9 89.8 76.4 35 23.4 76.6 46.2 121.5 60.6 44.9 14.5 93.1 20.6 131.5 22.7 38.4 2 66.8-0.1 96.4 4.1 29.6 4.1 60.3 14.6 33.3 20.9s-111.7 8.5-224.9-13-254.8-66.8-360-172.7-173.9-272.2-157.5-442 117.9-342.8 256.7-432.7c138.7-89.8 314.7-96.4 455.3-76.3s245.7 66.8 321.7 131.8c75.9 65 122.7 148.2 149.3 222 26.7 73.8 33.2 138 30 171.3s-16.2 35.5-23.3 25.8c-7.2-9.8-8.5-31.7-12.2-57.4z"/>
	
		<linearGradient id="h" x1="593.51" x2="325.87" y1="1943.2" y2="1509.4" gradientTransform="matrix(1 0 0 -1 0 3508.3)" gradientUnits="userSpaceOnUse">
		<stop stop-color="#7C3F06" offset="0"/>
		<stop stop-color="#69390F" offset="1"/>
	</linearGradient>
	<path class="st1" d="m288.2 1981.5c3.2-0.1 3.2-0.1 16.8 0.4s40.9 1.5 62.7-0.7 38.3-7.7 52.1-14.6c13.9-6.8 25.2-15.1 38.4-29.1 13.2-14.1 28.4-34 47.6-64.5 19.2-30.6 42.3-71.8 65-112.4 22.6-40.5 44.7-80.3 56-102.2 11.2-21.9 11.6-25.9 10.6-41.7s-3.4-43.4-10-58.7-17.3-18.4-33.4-16.1-37.4 9.9-84 58.8c-46.6 48.8-118.3 138.8-165.2 205.6s-69 110.4-77 135.8-1.8 32.5 4.5 36c6.4 3.6 12.7 3.5 15.9 3.4z"/>
	<path class="st2" d="m74.8 1044.5c1.9 1.3 1.9 1.3 16.2 9 14.4 7.7 43.1 23 66.2 32.8s40.7 14.2 55.1 16.8 25.7 3.3 43.8 0 42.9-10.6 76.3-21.7 75.4-26.1 109.9-37.4 61.5-19 83.4-25 38.7-10.4 63-25.7 56-41.6 64.8-69.2-5.5-56.4-82.3-55.7c-76.9 0.7-216.3 31-311.8 59.5s-147 55.1-173.9 71.5c-26.9 16.3-29.3 22.3-28.5 27.1 0.8 4.7 4.6 8.1 8.4 11.2 3.8 2.9 7.5 5.5 9.4 6.8z"/>
	<path class="st3" d="m701.6 178.9c-35.6-1.7-34.8 6.7-34.3 14 0.5 7.4 0.7 13.8 8.5 30.4 7.8 16.7 23.1 43.6 41.1 69s38.6 49.3 57.3 65 35.5 23.2 65.1 38.3 71.9 37.7 97 51.5c25 13.8 32.7 18.7 58.3 24.9s69 13.7 97.6 0.7 42.5-46.6 4.9-94.8-126.7-111-207.3-148.3c-80.5-37.3-152.6-49-188.2-50.7z"/>
	
		<radialGradient id="g" cx="3830" cy="-300.57" r="437.11" gradientTransform="matrix(-2.0851 -.6742 -.6418 1.9849 10056 4131.8)" gradientUnits="userSpaceOnUse">
		<stop stop-color="#EC9643" offset="0"/>
		<stop stop-color="#B86111" offset="1"/>
	</radialGradient>
	<path class="st4" d="m179.9 1061.6c-11.6 2.9-21.8 4.5-33.8 4.5-75 0-135.8-64.7-135.8-144.6 0-35.4 14-69.5 32.9-97.6 10.6-15.8 32.8-41.4 67.9-57.8l937.4-319.9c-68.1-33.6-308.9-139-348.6-184.9-21.6-25-34-57.2-34.6-92.4-1.7-87.1 81.6-157.4 176.7-148.1 11.4 1.1 21.3 2.4 30.8 5.9 97.8 36.1 231.6 105 387.1 173.1 123.3 54 229.2 104.9 341.9 152.5 414.3 175 706.9 389.6 706.9 899.1 0 583-552.2 1011.2-1117.7 858.5-117.6-31.7-229.2-86.6-325.1-161.7-90.4-70.8-179.8-166.4-227-272.2-19.2-43.1-30.3-84.4-35.8-105-4-14.8-5.1-19-6.1-19.6l-188.9 349.6c-29.6 54.3-66.8 80.9-130.3 80.9-64.3 0-146.7-45.4-152.5-147.9-1.3-22.9 3.4-60.8 14.5-82.1l472.6-831.5c-139.2 45.5-293.1 103.2-432.5 141.2zm1219.5-378.6c310 0 561.3 247.6 561.3 553.1s-251.3 553.1-561.3 553.1-561.4-247.6-561.4-553.1c0-305.4 251.3-553.1 561.4-553.1z"/>
	
		
			<defs>
				<rect id="f" x="2.9" y="12.6" width="2313.2" height="2135.8"/>
			</defs>
			<clipPath id="e">
				<use xlink:href="#f"/>
			</clipPath>
			
		
	
	
		
			<defs>
				<rect id="d" x="1976.1" y="553.8" width="325.9" height="1226"/>
			</defs>
			<clipPath id="c">
				<use xlink:href="#d"/>
			</clipPath>
			
		
	
	
		
			<defs>
				<rect id="b" x="824.7" y="741.8" width="301.5" height="911"/>
			</defs>
			<clipPath id="a">
				<use xlink:href="#b"/>
			</clipPath>
			
		
	
	
		
			<defs>
				<rect id="k" x="266.8" y="1537.2" width="340" height="454.9"/>
			</defs>
			<clipPath id="j">
				<use xlink:href="#k"/>
			</clipPath>
			
		
	

</svg>
